HIERARCHY
ROOT Hips
{
	OFFSET 0.00000 0.00000 0.00000
	CHANNELS 6 Xposition Yposition Zposition Zrotation Yrotation Xrotation 
	JOINT LHipJoint
	{
		OFFSET 0 0 0
		CHANNELS 3 Zrotation Yrotation Xrotation
		JOINT LeftUpLeg
		{
			OFFSET 1.24777 -1.64261 0.71711
			CHANNELS 3 Zrotation Yrotation Xrotation
			JOINT LeftLeg
			{
				OFFSET 2.49329 -6.85026 0.00000
				CHANNELS 3 Zrotation Yrotation Xrotation
				JOINT LeftFoot
				{
					OFFSET 2.36770 -6.50520 0.00000
					CHANNELS 3 Zrotation Yrotation Xrotation
					JOINT LeftToeBase
					{
						OFFSET 0.14820 -0.40718 2.21395
						CHANNELS 3 Zrotation Yrotation Xrotation
						End Site
						{
							OFFSET 0.00000 -0.00000 1.13491
						}
					}
				}
			}
		}
	}
	JOINT RHipJoint
	{
		OFFSET 0 0 0
		CHANNELS 3 Zrotation Yrotation Xrotation
		JOINT RightUpLeg
		{
			OFFSET -1.18320 -1.64261 0.71711
			CHANNELS 3 Zrotation Yrotation Xrotation
			JOINT RightLeg
			{
				OFFSET -2.46559 -6.77417 0.00000
				CHANNELS 3 Zrotation Yrotation Xrotation
				JOINT RightFoot
				{
					OFFSET -2.38450 -6.55136 0.00000
					CHANNELS 3 Zrotation Yrotation Xrotation
					JOINT RightToeBase
					{
						OFFSET -0.17454 -0.47954 2.02925
						CHANNELS 3 Zrotation Yrotation Xrotation
						End Site
						{
							OFFSET -0.00000 -0.00000 1.05076
						}
					}
				}
			}
		}
	}
	JOINT LowerBack
	{
		OFFSET 0 0 0
		CHANNELS 3 Zrotation Yrotation Xrotation
		JOINT Spine
		{
			OFFSET -0.02305 1.98660 0.00319
			CHANNELS 3 Zrotation Yrotation Xrotation
			JOINT Spine1
			{
				OFFSET -0.00718 1.99033 -0.00533
				CHANNELS 3 Zrotation Yrotation Xrotation
				JOINT Neck
				{
					OFFSET 0 0 0
					CHANNELS 3 Zrotation Yrotation Xrotation
					JOINT Neck1
					{
						OFFSET 0.00095 1.61015 0.10698
						CHANNELS 3 Zrotation Yrotation Xrotation
						JOINT Head
						{
							OFFSET -0.01060 1.59924 0.01317
							CHANNELS 3 Zrotation Yrotation Xrotation
							End Site
							{
								OFFSET -0.00458 1.63304 -0.00592
							}
						}
					}
				}
				JOINT LeftShoulder
				{
					OFFSET 0 0 0
					CHANNELS 3 Zrotation Yrotation Xrotation
					JOINT LeftArm
					{
						OFFSET 3.05381 1.47088 -0.01697
						CHANNELS 3 Zrotation Yrotation Xrotation
						JOINT LeftForeArm
						{
							OFFSET 4.25106 -0.00000 0.00000
							CHANNELS 3 Zrotation Yrotation Xrotation
							JOINT LeftHand
							{
								OFFSET 3.27592 -0.00000 0.00000
								CHANNELS 3 Zrotation Yrotation Xrotation
								JOINT LeftFingerBase
								{
									OFFSET 0 0 0
									CHANNELS 3 Zrotation Yrotation Xrotation
									JOINT LeftHandIndex1
									{
										OFFSET 0.65781 -0.00000 0.00000
										CHANNELS 3 Zrotation Yrotation Xrotation
										End Site
										{
											OFFSET 0.53034 -0.00000 0.00000
										}
									}
								}
								JOINT LThumb
								{
									OFFSET 0 0 0
									CHANNELS 3 Zrotation Yrotation Xrotation
									End Site
									{
										OFFSET 0.53844 -0.00000 0.53844
									}
								}
							}
						}
					}
				}
				JOINT RightShoulder
				{
					OFFSET 0 0 0
					CHANNELS 3 Zrotation Yrotation Xrotation
					JOINT RightArm
					{
						OFFSET -2.83695 1.31619 -0.22674
						CHANNELS 3 Zrotation Yrotation Xrotation
						JOINT RightForeArm
						{
							OFFSET -4.46073 -0.00000 0.00000
							CHANNELS 3 Zrotation Yrotation Xrotation
							JOINT RightHand
							{
								OFFSET -3.44416 -0.00000 0.00000
								CHANNELS 3 Zrotation Yrotation Xrotation
								JOINT RightFingerBase
								{
									OFFSET 0 0 0
									CHANNELS 3 Zrotation Yrotation Xrotation
									JOINT RightHandIndex1
									{
										OFFSET -0.61651 -0.00000 0.00000
										CHANNELS 3 Zrotation Yrotation Xrotation
										End Site
										{
											OFFSET -0.49705 -0.00000 0.00000
										}
									}
								}
								JOINT RThumb
								{
									OFFSET 0 0 0
									CHANNELS 3 Zrotation Yrotation Xrotation
									End Site
									{
										OFFSET -0.50464 -0.00000 0.50464
									}
								}
							}
						}
					}
				}
			}
		}
	}
}
MOTION
Frames: 10
Frame Time: 0.0208333
0.00 0.00 0.00 0 0 0 0 0 0 -21 0 0 0 0 0 0 0 0 0 0 0 0 0 0 21 0 0 0 0 0 0 0 0 0 0 0 0 0 0 0 0 0 0 0 0 0 0 -16 0 0 21 0 0 11 0 0 0 -8 0 0 0 0 0 0 0 0 0 0 0 0 0 0 0 0 0 0 0 0 8 0 0 0 0 0 0 0 0 0 0 0 0 0 0 0 0 0
0.00 0.00 0.00 -2.3424 1.8713 11.0618 0.0000 0.0000 0.0000 -17.2213 0.7015 -30.0317 5.3722 13.7911 42.4070 1.4230 -17.8029 -23.1377 3.5767 11.5748 34.2438 0.0000 0.0000 0.0000 19.4939 6.1037 -16.7359 -2.6464 -10.0994 29.2993 -2.2411 -7.2790 -31.6159 -0.0424 1.3287 -3.6537 2.1943 1.9069 -4.9150 -0.6350 2.4454 -1.5153 -1.7339 1.2239 1.3148 2.3029 -2.0055 -9.7712 2.1755 -2.8584 -4.6819 0.2047 -1.4361 0.1559 -0.0000 -0.0000 0.0000 -84.4347 9.4065 45.2039 25.1835 -36.3909 -8.3985 -0.0000 0.0000 -7.6911 10.5516 2.9750 0.5539 -7.1250 0.0000 -0.0000 -12.9644 32.8065 3.9602 -0.0000 -0.0000 0.0000 92.5634 -10.0925 29.7191 -23.7009 34.8463 -7.5349 0.0000 0.0000 7.9383 -26.9975 -19.4953 9.6494 7.1250 -0.0000 -0.0000 1.3527 -51.6439 -0.2214
0.00 0.00 0.00 -6.1547 8.4710 7.3065 0.0000 0.0000 0.0000 -3.3484 -16.0020 -29.8607 5.0117 13.3969 40.8730 1.0326 -3.7367 -18.3196 0.2299 3.0858 8.5178 0.0000 0.0000 0.0000 17.7007 -8.0379 -19.7380 -5.2165 -13.6235 41.7498 -1.5823 5.0932 -22.6774 -1.5809 7.9322 -22.5085 2.8493 3.2457 -2.1256 1.6503 4.3130 -2.2325 0.1551 2.1353 -1.0198 2.8205 -4.7764 -9.8449 1.0857 -6.6279 -2.7234 -0.3573 -3.3047 0.7241 0.0000 0.0000 0.0000 -86.9747 15.7540 36.2940 27.9088 -39.0321 -10.0662 -0.0000 0.0000 -13.1489 -1.3719 4.5612 -0.1091 -7.1250 0.0000 -0.0000 -22.6393 33.7876 6.6763 0.0000 0.0000 0.0000 82.5544 -11.7898 24.4529 -30.9434 41.6884 -12.0322 0.0000 -0.0000 -0.3629 -16.1500 -12.6674 3.6335 7.1250 -0.0000 -0.0000 10.0821 -42.9243 0.5221
0.00 0.00 0.00 -5.3702 9.3254 6.2638 0.0000 0.0000 0.0000 -5.2497 -16.3839 -27.4985 4.7616 13.1102 39.7823 1.0451 -5.0944 -18.2940 0.2399 3.1521 8.7024 0.0000 0.0000 0.0000 13.2635 -5.8422 -24.9882 -8.3722 -16.3863 53.8925 -0.0862 10.4609 -8.6386 -2.5321 9.8961 -28.6410 2.3458 2.8919 -1.3951 1.7294 3.8718 -2.1024 0.4703 1.9194 -1.3403 2.6164 -4.9164 -10.0428 1.0469 -6.8202 -1.6856 -0.3715 -3.3848 1.0935 0.0000 -0.0000 0.0000 -87.1324 16.3296 36.6898 28.3886 -39.4715 -10.3698 -0.0000 0.0000 -14.6930 -4.6800 6.2016 -0.5067 -7.1250 0.0000 -0.0000 -25.6298 35.0838 6.8224 0.0000 -0.0000 0.0000 80.3059 -13.0429 22.7459 -31.5489 42.1845 -12.4368 0.0000 -0.0000 -3.1650 -15.9062 -11.9082 3.3653 7.1250 -0.0000 -0.0000 10.1287 -42.1269 0.7261
0.00 0.00 0.00 -4.3564 10.0953 4.9042 0.0000 0.0000 0.0000 -7.7619 -14.5660 -25.3609 4.4318 12.7139 38.3067 0.9368 -7.8588 -17.3344 0.5353 4.6880 13.0209 0.0000 0.0000 0.0000 7.4248 -1.0799 -30.7887 -12.4442 -18.5722 67.3901 0.5649 14.7263 12.5036 -0.9023 6.0536 -16.9401 1.3842 2.4181 -0.1073 1.8151 3.2678 -1.6684 1.0406 1.6300 -1.6787 2.4676 -4.9521 -10.3136 0.9781 -6.8734 -0.9585 -0.3953 -3.4014 1.3783 -0.0000 -0.0000 0.0000 -86.7513 16.6106 38.0794 29.1781 -40.1784 -10.8754 -0.0000 0.0000 -15.9288 -6.9132 8.0807 -0.9764 -7.1250 0.0000 -0.0000 -27.9340 36.6084 6.3961 -0.0000 -0.0000 0.0000 77.7407 -13.7440 21.4517 -31.5743 42.2051 -12.4539 0.0000 -0.0000 -3.4678 -17.1705 -12.1377 3.7172 7.1250 -0.0000 -0.0000 9.0602 -42.4872 0.5668
0.00 0.00 0.00 -3.1845 11.7465 2.3437 0.0000 0.0000 0.0000 -10.7758 -11.0362 -22.3550 3.9714 12.1222 36.1656 0.5314 -12.2189 -14.5314 1.4379 7.5812 21.4489 0.0000 0.0000 0.0000 -1.5371 6.6496 -38.6997 -18.3506 -19.9346 85.1725 -2.4404 11.1993 35.1686 -0.5926 -4.9285 13.7048 -0.0857 1.4333 2.4389 1.9953 1.9506 -0.6089 2.0134 0.9890 -2.0642 2.2387 -4.8693 -10.5747 0.8576 -6.7499 -0.5664 -0.4072 -3.3371 1.5571 -0.0000 0.0000 0.0000 -85.2908 16.1214 40.9801 30.0606 -40.9453 -11.4493 -0.0000 0.0000 -15.5770 -8.2504 9.0971 -1.3133 -7.1250 0.0000 -0.0000 -29.3105 37.4006 6.1397 -0.0000 0.0000 0.0000 74.3254 -14.2029 20.6292 -31.2763 41.9625 -12.2542 0.0000 0.0000 1.6912 -21.6358 -13.9444 5.4600 7.1250 -0.0000 -0.0000 5.3931 -44.8672 0.0177
0.00 0.00 0.00 5.7112 6.5975 -11.2942 0.0000 0.0000 0.0000 -22.6920 9.8640 -7.5587 3.1625 10.9536 32.1234 0.3408 -13.7812 -13.3597 2.1870 9.2452 26.5654 0.0000 0.0000 0.0000 38.7908 -6.7041 -97.4062 -14.1120 -19.1477 72.5462 1.1736 20.6844 -1.6593 -4.6524 12.9813 -39.2984 -9.0109 -2.1321 17.0602 -1.5120 -4.3236 5.8175 4.2758 -2.1969 -2.7265 0.3392 -0.3718 -12.8355 2.4049 -0.6686 1.0572 0.6792 -0.2405 2.5820 -0.0000 -0.0000 0.0000 -77.3735 10.6665 46.6889 35.0539 -44.8506 -14.8514 -0.0000 0.0000 -17.2853 -7.0944 5.5645 -0.6914 -7.1250 0.0000 -0.0000 -27.2617 34.3454 7.9029 -0.0000 -0.0000 0.0000 77.6889 -8.5958 -7.1742 -64.1300 57.3136 -37.7980 0.0000 -0.0000 -34.2303 0.0182 -21.3563 -0.0066 7.1250 -0.0000 -0.0000 27.8596 -49.1584 -3.0742
0.00 0.00 0.00 5.8191 8.6890 -11.2051 0.0000 0.0000 0.0000 -22.3361 10.7238 -8.8330 3.4602 11.4051 33.6586 0.1377 -16.4929 -12.9309 2.5204 9.8749 28.5725 0.0000 0.0000 0.0000 37.1738 -5.8808 -100.4736 -18.9023 -19.9711 86.7889 2.1823 25.0642 9.1666 -6.0203 14.4480 -45.0631 -9.3456 -3.0112 17.5260 -2.0247 -5.5907 5.9095 4.1566 -2.8200 -2.7191 -0.2858 -0.4370 -12.6811 3.0702 -0.6779 0.4884 1.0019 -0.2319 2.3702 0.0000 0.0000 0.0000 -75.6225 9.5190 48.7769 34.7596 -44.6397 -14.6442 -0.0000 0.0000 -18.4892 -8.5921 6.2873 -0.9480 -7.1250 0.0000 -0.0000 -28.6054 34.8834 7.9595 0.0000 0.0000 0.0000 82.0390 -8.3662 -9.8830 -71.8917 58.7240 -44.3849 0.0000 -0.0000 -40.9245 -17.5070 -21.7816 6.6759 7.1250 -0.0000 -0.0000 11.5800 -52.3461 -2.1171
0.00 0.00 0.00 5.3076 10.7670 -10.5279 0.0000 0.0000 0.0000 -21.5223 11.0069 -10.4734 3.6520 11.6823 34.6172 -0.1104 -18.7440 -12.1839 2.7484 10.2762 29.8757 0.0000 0.0000 0.0000 34.4880 -5.8269 -101.5041 -21.8508 -19.9177 95.4185 -0.1701 18.7825 27.9129 -3.7055 11.7578 -34.8804 -9.0656 -3.7200 17.3740 -2.1356 -6.4694 5.7105 4.0281 -3.2397 -2.7824 -0.6657 -0.6760 -12.4898 3.6068 -0.9569 0.3099 1.2258 -0.3573 2.2898 0.0000 0.0000 0.0000 -74.7607 8.0501 50.4970 33.5922 -43.7803 -13.8301 -0.0000 0.0000 -18.2076 -10.3944 6.9710 -1.2753 -7.1250 0.0000 -0.0000 -30.1670 35.3485 8.1162 0.0000 0.0000 0.0000 84.6850 -9.0668 -10.2803 -76.4536 59.2951 -48.2962 0.0000 -0.0000 -40.0987 -32.1690 -23.2430 13.9399 7.1250 -0.0000 -0.0000 -3.4020 -56.8498 0.9887
0.00 0.00 0.00 3.7324 16.2034 -7.7915 0.0000 0.0000 0.0000 -19.4438 11.1840 -15.7155 4.0698 12.2528 36.6321 -0.1427 -20.1358 -12.9675 1.8583 8.5645 24.4424 0.0000 0.0000 0.0000 26.5081 -7.8108 -99.2632 -27.5768 -18.5639 112.6761 -3.8471 6.2930 39.5792 -0.0672 -1.6723 4.6009 -8.2893 -5.0239 16.0024 -2.1137 -7.9724 4.7535 3.7857 -3.9397 -2.9949 -1.0290 -1.6699 -11.8522 4.7875 -2.2687 0.1814 1.6002 -0.9806 2.1915 -0.0000 -0.0000 0.0000 -73.8784 3.4457 55.0466 29.7496 -40.6778 -11.2461 -0.0000 0.0000 -13.1353 -17.4430 9.4770 -2.9615 -7.1250 0.0000 -0.0000 -36.1850 36.8602 8.7161 -0.0000 -0.0000 0.0000 90.2724 -13.7901 -6.3218 -84.6612 59.8920 -55.3782 0.0000 -0.0000 -23.9148 -64.0461 -36.3831 50.6293 7.1250 -0.0000 -0.0000 -89.9771 -76.6173 76.2129
